<?xml version="1.0" standalone="no"?>
<!DOCTYPE svg PUBLIC "-//W3C//DTD SVG 20010904//EN"
 "http://www.w3.org/TR/2001/REC-SVG-20010904/DTD/svg10.dtd">
<svg version="1.0" xmlns="http://www.w3.org/2000/svg"
 width="512.000000pt" height="512.000000pt" viewBox="0 0 512.000000 512.000000"
 preserveAspectRatio="xMidYMid meet">
<metadata>
Created by potrace 1.14, written by Peter Selinger 2001-2017
</metadata>
<g transform="translate(0.000000,512.000000) scale(0.100000,-0.100000)"
fill="#000000" stroke="none">
<path d="M2330 4224 c-74 -130 -147 -257 -162 -283 -15 -25 -31 -53 -35 -61
-8 -15 -122 -216 -165 -290 -11 -19 -75 -132 -143 -250 -67 -118 -132 -231
-143 -250 -11 -19 -29 -51 -40 -70 -10 -19 -91 -161 -179 -315 -89 -154 -170
-296 -180 -315 -11 -19 -64 -111 -118 -205 -54 -93 -106 -186 -117 -205 -11
-19 -27 -48 -37 -65 -10 -16 -29 -50 -43 -75 -14 -25 -41 -72 -60 -105 -20
-33 -47 -80 -60 -105 -14 -25 -85 -148 -157 -274 -72 -126 -131 -231 -131
-234 0 -3 -6 -13 -14 -21 -7 -9 -29 -45 -48 -81 -20 -36 -65 -117 -101 -180
-63 -108 -74 -136 -45 -112 7 5 40 25 73 42 33 18 67 39 76 46 8 8 18 14 22
14 4 0 44 22 89 49 92 54 135 79 256 148 45 25 82 50 82 53 0 4 63 116 140
250 77 134 140 245 140 247 0 2 11 21 25 43 14 22 38 64 54 92 16 29 114 202
218 383 104 182 192 337 196 345 4 8 174 305 377 660 l370 645 0 357 c0 197
-1 358 -2 358 -2 0 -64 -106 -138 -236z"/>
<path d="M2650 4106 l0 -357 141 -242 c78 -133 172 -294 209 -357 100 -170
630 -1080 650 -1115 9 -16 40 -68 67 -115 28 -47 60 -101 71 -120 11 -19 73
-125 137 -235 65 -110 128 -218 140 -240 13 -22 56 -96 96 -164 l74 -124 305
-177 c168 -98 307 -176 309 -174 2 2 -7 20 -19 41 -13 21 -31 52 -40 68 -10
17 -41 71 -70 120 -29 50 -60 104 -70 120 -15 26 -75 128 -315 540 -28 50 -85
146 -125 215 -40 69 -86 148 -103 175 -16 28 -41 70 -55 95 -14 24 -116 200
-227 390 -111 190 -419 719 -685 1175 -265 457 -484 832 -486 834 -2 2 -4
-156 -4 -353z"/>
<path d="M3567 873 c-1 0 -592 -4 -1313 -7 l-1312 -5 -308 -177 c-170 -97
-311 -178 -313 -180 -3 -2 688 -1 1535 2 846 3 1846 7 2221 8 376 0 683 4 683
7 0 3 -55 36 -121 75 -183 104 -197 112 -294 169 -49 29 -112 65 -140 80 l-50
29 -293 0 c-162 1 -294 0 -295 -1z"/>
</g>
</svg>
